<?xml version="1.0" standalone="no"?>
<!DOCTYPE svg PUBLIC "-//W3C//DTD SVG 20010904//EN"
 "http://www.w3.org/TR/2001/REC-SVG-20010904/DTD/svg10.dtd">
<svg version="1.0" xmlns="http://www.w3.org/2000/svg"
 width="267.000000pt" height="295.000000pt" viewBox="0 0 267.000000 295.000000"
 preserveAspectRatio="xMidYMid meet">

<g transform="translate(0.000000,295.000000) scale(0.100000,-0.100000)"
fill="#000000" stroke="none">
<path d="M1 1623 c1 -1123 3 -1317 14 -1258 21 114 41 145 91 145 14 0 16 -8
10 -57 -18 -164 -19 -273 -2 -318 22 -56 57 -85 105 -85 70 0 112 56 131 175
9 56 8 77 -6 128 -23 83 -22 123 3 149 49 48 76 -5 76 -152 1 -182 -38 -276
-134 -324 l-53 -26 1217 0 1217 0 0 1475 0 1475 -1335 0 -1335 0 1 -1327z
m428 1308 c38 -10 36 -28 -8 -57 -58 -38 -51 -64 15 -64 14 0 35 -5 46 -11 19
-10 18 -13 -28 -60 -26 -27 -45 -52 -41 -55 3 -4 28 2 54 14 26 11 51 18 55
16 5 -3 5 -31 2 -62 l-6 -57 39 43 c21 24 42 40 46 36 4 -4 7 -29 7 -56 0 -63
19 -60 38 5 7 26 16 47 20 47 4 0 15 -14 24 -30 23 -41 38 -38 38 9 0 22 4 42
9 45 5 3 30 -13 55 -35 26 -23 50 -39 53 -35 3 3 -4 29 -16 57 -24 59 -27 99
-7 99 7 0 30 -7 49 -15 86 -36 100 -8 32 64 -25 26 -45 53 -45 60 0 19 65 41
137 48 52 5 65 3 61 -7 -2 -7 -21 -19 -43 -27 -45 -15 -65 -30 -65 -48 0 -8
29 -45 65 -84 36 -39 65 -76 65 -81 0 -22 -35 -22 -99 -2 -109 36 -120 28 -80
-58 28 -59 39 -109 27 -116 -9 -6 -54 22 -115 72 -38 30 -48 27 -57 -21 -8
-39 -29 -46 -46 -15 -6 11 -17 20 -25 20 -13 0 -19 -14 -44 -107 -22 -79 -46
-66 -57 30 -4 31 -11 60 -16 63 -4 3 -22 -6 -39 -20 -49 -42 -59 -35 -59 39 0
39 -4 65 -11 65 -5 0 -48 -18 -94 -41 -126 -62 -132 -43 -25 78 33 37 60 72
60 79 0 11 -65 24 -122 24 -41 0 -32 18 30 59 28 18 49 37 47 42 -3 4 -22 13
-43 19 -20 6 -43 13 -50 16 -58 18 103 33 167 15z m186 -11 c29 -32 52 -34 86
-6 31 26 63 33 87 17 11 -7 11 -9 -2 -14 -16 -6 -23 -47 -8 -47 4 0 21 -11 37
-25 l30 -24 -47 6 c-44 5 -48 4 -48 -15 0 -12 5 -33 12 -47 18 -39 1 -42 -30
-5 -35 41 -58 36 -68 -15 -8 -43 -24 -56 -24 -20 0 33 -17 65 -34 65 -7 0 -25
-10 -40 -21 -36 -29 -41 -20 -11 21 13 18 22 37 19 41 -3 5 -26 9 -52 9 l-47
1 37 19 c48 26 53 35 27 53 -15 11 -17 16 -7 20 29 12 66 6 83 -13z m995 5
c15 -14 21 -14 60 0 80 28 161 14 214 -40 62 -62 68 -171 14 -248 -46 -65
-153 -86 -235 -46 l-43 21 -20 -24 -19 -23 -1 27 c0 39 -16 43 -55 13 -40 -30
-44 -21 -13 30 23 40 16 54 -27 55 -17 0 -14 5 15 30 34 29 34 31 16 45 -10 8
-24 16 -30 19 -6 3 0 13 14 25 l25 20 -23 42 c-13 22 -21 43 -19 46 3 2 19 -3
37 -12 37 -19 60 -14 60 15 0 24 8 25 30 5z m532 -14 c14 -14 15 -22 6 -57
-13 -49 -6 -74 21 -74 29 0 44 34 36 81 -11 63 24 91 92 73 19 -5 21 -9 12
-27 -9 -15 -8 -34 1 -73 29 -118 -12 -199 -114 -229 -49 -15 -266 -22 -266 -9
0 3 11 15 25 26 19 15 25 29 25 60 l0 40 31 -26 c17 -14 39 -26 49 -26 22 0
50 25 50 45 0 19 -44 52 -88 66 -59 18 -58 26 3 39 l57 12 -23 24 c-12 13 -44
31 -71 40 -27 9 -47 18 -44 21 9 10 111 20 146 16 19 -3 43 -13 52 -22z
m-1055 -71 c2 -8 -1 -22 -7 -30 -8 -13 -14 -13 -45 4 -35 19 -41 27 -28 40 13
13 78 2 80 -14z m-747 -109 c0 -13 -59 -61 -76 -61 -15 0 -19 27 -6 46 14 21
82 33 82 15z m685 -132 c45 -34 55 -47 55 -71 0 -32 -23 -47 -45 -28 -19 16
-95 129 -95 142 0 15 24 3 85 -43z m-596 -64 c16 -15 28 -110 15 -118 -14 -8
-87 20 -101 40 -46 62 30 131 86 78z m1805 -10 c-8 -21 -47 -43 -87 -50 -33
-6 -38 -4 -48 19 -7 14 -10 27 -8 29 2 2 31 10 64 18 61 16 89 10 79 -16z
m-597 10 c20 -9 43 -13 50 -11 21 8 16 -54 -8 -93 l-20 -33 -24 22 c-13 13
-23 32 -22 44 3 31 -48 35 -79 5 -20 -18 -24 -20 -24 -6 0 31 23 66 49 76 36
13 37 13 78 -4z m661 3 c60 -60 -92 -187 -182 -152 -27 10 -19 43 12 49 98 20
141 48 145 94 1 24 8 26 25 9z m-387 -14 c10 -12 23 -14 55 -9 38 5 45 3 59
-18 24 -37 34 -81 23 -101 -14 -25 -69 -46 -120 -46 -82 0 -154 55 -173 133
-7 25 -5 27 26 27 19 1 48 7 64 15 40 18 50 18 66 -1z m-1046 -37 c20 -17 28
-35 32 -70 l6 -47 34 35 c26 27 42 35 68 35 51 0 75 -28 75 -90 0 -51 -16 -70
-22 -25 -4 35 -19 36 -31 2 -12 -36 -2 -75 21 -79 15 -3 13 -8 -11 -32 -22
-22 -34 -27 -55 -21 -38 9 -71 43 -84 87 -11 36 -23 48 -30 29 -1 -5 -21 -20
-42 -35 -53 -36 -126 -37 -161 -1 -25 24 -32 65 -19 99 8 20 24 11 24 -13 0
-24 23 -43 44 -35 19 7 41 75 33 98 -4 9 -16 16 -28 16 -28 0 -20 20 21 48 43
29 91 29 125 -1z m-542 -73 c26 -22 26 -23 6 -29 -66 -21 -109 48 -65 104 8
10 13 6 21 -19 6 -18 23 -43 38 -56z m231 -9 c7 -19 -20 -46 -39 -39 -21 8
-26 32 -9 48 16 17 40 12 48 -9z m1166 -20 c0 -35 -6 -52 -29 -77 -27 -31 -34
-33 -93 -33 -35 0 -69 -4 -76 -9 -8 -5 -18 -4 -24 2 -16 16 -22 96 -9 121 11
20 14 20 34 6 12 -8 34 -15 50 -15 25 0 27 -2 17 -20 -10 -18 -8 -20 25 -20
27 0 44 8 66 29 16 16 29 37 29 45 0 9 2 16 5 16 3 0 5 -20 5 -45z m607 -84
c-6 -104 -12 -131 -32 -131 -31 0 -145 124 -145 158 0 6 15 13 33 17 41 9 98
41 116 67 13 19 14 19 24 3 6 -11 7 -58 4 -114z m-1847 45 c5 -13 14 -27 20
-31 29 -18 -28 -101 -87 -127 -39 -17 -50 -18 -98 -7 -51 11 -54 14 -49 38 15
66 28 93 57 115 36 27 55 33 110 35 31 1 39 -3 47 -23z m114 -12 c7 -19 -10
-44 -31 -44 -17 0 -27 24 -19 45 7 20 42 19 50 -1z m1201 -39 c0 -22 -31 -33
-47 -17 -17 17 -1 44 24 40 15 -2 23 -10 23 -23z m300 -20 c22 -13 56 -46 75
-73 19 -27 56 -63 81 -80 90 -60 101 -142 31 -241 -48 -69 -75 -121 -68 -129
4 -3 24 11 45 32 25 25 45 37 55 33 23 -9 20 -75 -5 -116 l-21 -35 -14 33
c-18 42 -50 39 -79 -6 -11 -18 -23 -32 -26 -33 -3 0 -12 19 -18 42 -30 99 -93
162 -188 187 -57 15 -67 37 -53 106 14 66 29 64 60 -6 13 -32 44 -72 85 -111
35 -33 75 -81 87 -107 19 -38 23 -42 26 -24 5 35 -30 104 -89 174 -93 111 -89
103 -49 96 19 -4 44 -17 56 -28 18 -17 77 -151 96 -218 2 -7 16 11 32 40 25
50 26 55 10 64 -81 47 -95 95 -45 146 46 45 55 39 47 -32 -9 -94 17 -127 54
-66 31 50 27 112 -9 148 -33 33 -64 36 -126 14 -145 -52 -281 28 -301 177 l-6
43 108 -3 c93 -3 115 -7 149 -27z m-1490 -95 c19 -37 19 -60 -1 -88 -10 -14
-26 -22 -44 -22 -54 0 -78 76 -45 141 15 29 16 29 45 14 16 -8 36 -29 45 -45z
m1040 35 c0 -23 -34 -33 -45 -14 -13 20 1 40 24 37 13 -2 21 -10 21 -23z m125
11 c32 -39 -23 -100 -65 -72 -43 28 -26 86 25 86 15 0 33 -7 40 -14z m-872
-29 c25 -23 28 -37 8 -37 -13 0 -56 -49 -56 -64 0 -3 21 6 46 19 83 44 164 27
164 -35 0 -37 -8 -42 -31 -19 -14 14 -33 19 -76 19 -69 0 -100 -14 -54 -23 37
-8 71 -40 71 -68 0 -12 -17 -38 -37 -57 l-38 -35 -5 44 c-6 43 -34 99 -51 99
-26 0 -50 -146 -29 -175 4 -5 10 -25 13 -42 4 -18 18 -51 33 -73 22 -33 24
-42 14 -55 -12 -14 -17 -12 -47 17 -18 17 -33 39 -33 48 0 9 -7 25 -15 36 -8
10 -15 33 -15 49 0 17 -4 45 -10 63 -5 19 -5 41 -1 50 9 18 31 85 31 94 0 3
-21 2 -46 -3 -47 -9 -95 -37 -114 -67 -9 -13 -10 -8 -6 23 4 27 14 48 32 64
24 20 36 23 86 19 32 -2 58 -1 58 3 0 17 -65 53 -97 53 -24 1 -33 6 -33 18 0
35 12 48 44 48 32 0 79 -38 103 -84 9 -16 12 -10 18 30 11 78 24 85 73 41z
m676 -14 c4 -9 1 -23 -7 -30 -7 -8 -21 -11 -30 -7 -17 6 -23 35 -10 47 12 13
41 7 47 -10z m-1103 -97 c15 -16 10 -26 -14 -26 -49 0 -63 54 -24 93 l22 22 3
-40 c2 -22 8 -44 13 -49z m1197 62 c20 -20 15 -66 -9 -78 -26 -14 -69 11 -69
40 0 39 51 65 78 38z m166 6 c22 -8 20 -41 -2 -53 -22 -12 -42 3 -42 29 0 28
14 36 44 24z m-1504 -30 l35 -11 -26 -12 c-33 -16 -69 0 -69 30 0 14 4 18 13
12 6 -4 28 -13 47 -19z m1240 -44 c16 -30 -4 -60 -40 -60 -23 0 -31 5 -36 25
-4 15 -1 32 6 40 18 21 57 19 70 -5z m188 -8 c4 -28 -24 -40 -45 -19 -14 13
-14 19 -3 32 18 22 44 15 48 -13z m-1427 -30 c27 3 49 4 49 2 0 -7 -80 -44
-94 -44 -18 0 -46 38 -46 62 0 16 2 16 21 -3 18 -18 30 -20 70 -17z m1517 9
c8 -4 12 -19 10 -32 -4 -29 -45 -34 -61 -7 -19 30 19 60 51 39z m-188 -46 c0
-17 -30 -34 -47 -28 -7 3 -13 15 -13 28 0 13 6 25 13 28 17 6 47 -11 47 -28z
m-1170 -13 c0 -16 -9 -55 -20 -87 -38 -109 -18 -131 28 -32 17 34 33 70 36 80
3 10 12 17 19 14 28 -9 -6 -119 -92 -296 -40 -82 -52 -143 -31 -156 6 -3 10
-10 10 -16 0 -16 -26 -10 -54 12 l-26 20 -11 -27 c-15 -42 -3 -73 52 -131 47
-50 54 -64 49 -108 -4 -39 -18 -36 -73 17 -48 46 -57 60 -67 111 -14 72 3 140
56 218 56 83 66 107 55 127 -16 30 -50 55 -66 49 -17 -7 -20 -49 -5 -76 12
-24 -20 -85 -47 -89 -15 -2 -24 5 -32 29 -14 42 -13 214 2 258 19 53 33 48 32
-11 0 -66 25 -75 38 -13 18 89 28 115 44 115 13 0 14 -7 8 -47 -21 -126 -3
-151 32 -46 37 111 63 146 63 85z m1272 1 c10 -9 18 -26 18 -39 0 -23 -33 -54
-57 -54 -18 0 -53 37 -53 55 0 20 36 55 57 55 9 0 25 -7 35 -17z m-679 -92 c0
-17 -12 -47 -26 -69 -34 -49 -34 -62 3 -97 17 -16 30 -36 30 -46 0 -9 -13 -43
-30 -74 -38 -72 -38 -89 1 -127 l30 -31 -45 5 c-113 13 -177 128 -120 216 14
22 17 23 39 8 65 -43 74 0 10 44 -25 17 -53 43 -62 56 -16 26 -16 26 52 89 61
57 67 66 61 92 l-7 28 32 -32 c22 -22 32 -41 32 -62z m-401 30 c-7 -78 4 -113
68 -210 98 -150 109 -182 70 -221 -44 -44 -123 -6 -105 50 6 20 8 20 19 5 7
-10 21 -15 32 -13 31 6 21 55 -25 132 -51 82 -81 156 -81 196 0 41 -16 38 -23
-5 -6 -35 7 -100 37 -184 9 -24 16 -55 16 -69 0 -47 -49 -79 -78 -50 -20 20
-14 45 11 44 20 -1 22 4 21 44 -1 59 -39 198 -48 175 -3 -9 -6 -50 -6 -90 0
-41 -5 -86 -12 -100 -21 -47 -88 -42 -88 7 0 16 3 18 14 9 18 -15 45 -4 51 23
2 11 6 50 8 86 5 76 33 139 84 188 19 17 36 32 37 32 2 0 1 -22 -2 -49z m904
-17 c13 -8 20 -27 24 -68 6 -67 24 -79 28 -18 2 26 9 45 18 49 16 6 104 -28
104 -40 0 -4 -22 -17 -50 -29 -52 -21 -70 -49 -50 -73 19 -23 60 -19 60 5 0
11 6 20 13 20 16 0 97 -67 97 -80 0 -10 -64 -30 -97 -30 -18 0 -22 5 -20 23 2
18 -4 23 -27 25 -43 5 -52 -11 -26 -48 12 -17 19 -37 16 -45 -8 -22 -50 -18
-71 5 -17 19 -18 22 -2 55 16 34 16 35 -3 35 -11 0 -24 -9 -30 -21 -12 -22
-67 -59 -88 -59 -9 0 -10 5 -2 19 5 11 10 42 10 69 0 60 17 71 58 37 17 -14
33 -21 41 -16 22 14 8 43 -39 76 -63 45 -77 72 -62 123 l13 41 33 -22 c18 -12
42 -27 52 -33z m269 11 c0 -22 -31 -33 -47 -17 -17 17 -1 44 24 40 15 -2 23
-10 23 -23z m-7 -96 l13 -21 25 23 c27 25 28 20 15 -47 -9 -46 1 -84 22 -84
22 0 38 47 31 93 l-7 42 22 -20 c18 -16 25 -17 41 -7 27 17 32 15 20 -7 -14
-27 -13 -31 12 -40 20 -7 17 -9 -22 -22 -49 -16 -71 -42 -53 -60 12 -12 68 -4
116 16 16 7 16 5 5 -20 -11 -24 -10 -29 12 -47 24 -19 24 -19 3 -13 -18 5 -25
1 -34 -19 l-12 -25 -28 39 c-30 41 -64 59 -82 41 -18 -18 18 -79 60 -104 l38
-22 -29 -3 c-25 -3 -28 -7 -24 -33 5 -34 -2 -37 -27 -9 -17 19 -19 19 -37 4
-22 -20 -22 -14 -4 48 26 83 -11 142 -51 82 -10 -15 -20 -51 -24 -78 -5 -50
-6 -50 -17 -23 -10 23 -15 26 -31 17 -29 -15 -33 -13 -20 11 12 23 5 35 -26
41 -14 3 -5 9 27 18 57 15 98 50 98 83 0 24 -38 64 -86 93 -18 11 -17 13 8 22
20 8 25 16 21 31 -7 27 9 27 25 0z m422 -221 c36 -59 23 -153 -31 -230 l-22
-30 -12 30 c-9 20 -31 39 -67 58 -42 23 -54 35 -56 57 -5 41 15 59 59 55 36
-3 37 -2 32 23 -14 70 60 97 97 37z m-1098 -74 c51 -23 69 -45 75 -93 15 -109
-102 -202 -216 -171 -77 20 -141 97 -141 169 0 42 15 47 51 17 59 -50 166 -58
206 -14 18 20 17 21 -20 52 -28 23 -37 38 -37 62 0 42 11 50 29 20 8 -14 32
-32 53 -42z m404 32 c18 -14 18 -15 2 -20 -56 -18 -55 -17 -25 -32 39 -21 29
-38 -24 -42 -63 -4 -74 -9 -59 -27 18 -21 6 -41 -28 -48 -44 -9 -82 -46 -88
-87 -15 -92 135 -183 225 -137 29 14 39 37 17 37 -10 0 -15 8 -13 23 1 15 -2
21 -13 18 -8 -2 -31 -8 -51 -14 -40 -12 -80 -4 -103 19 -20 20 -21 44 -1 44 8
0 15 9 15 20 0 25 6 25 55 -5 33 -21 53 -25 117 -25 42 0 88 4 102 10 31 12
34 -2 11 -58 -61 -146 -264 -172 -372 -48 -42 46 -56 96 -51 172 6 95 61 166
154 199 51 18 105 19 130 1z m102 -26 c89 -54 97 -190 11 -190 -69 0 -90 41
-64 121 9 27 14 58 10 69 -8 25 1 25 43 0z m-1108 -14 c6 -8 28 -16 48 -18 30
-2 38 -8 47 -32 8 -25 6 -31 -18 -50 -15 -12 -27 -31 -27 -43 0 -40 -49 -60
-83 -32 -14 10 -36 19 -50 19 -21 0 -57 22 -57 35 0 20 23 55 40 60 11 3 18
11 14 16 -3 6 2 21 10 34 18 28 57 33 76 11z m1295 -89 c29 -42 6 -97 -40 -97
-37 0 -47 23 -40 84 l7 54 29 -10 c16 -5 36 -20 44 -31z m-1049 -21 c18 -13
34 -43 65 -123 6 -16 17 -23 34 -23 54 0 115 -52 115 -99 0 -33 -60 -42 -110
-16 -33 17 -54 52 -64 106 -8 45 -48 83 -104 100 -54 16 -68 32 -47 53 20 20
84 21 111 2z m752 -12 c26 -18 29 -46 6 -65 -25 -20 -49 1 -49 45 -1 39 9 44
43 20z m529 -10 c58 -36 77 -115 45 -188 -24 -53 -127 -166 -152 -166 -40 0
-53 45 -17 59 53 21 117 94 117 136 0 25 -25 17 -44 -16 -32 -54 -84 -99 -115
-99 -33 0 -81 34 -81 58 0 9 25 36 54 59 61 46 79 72 66 93 -6 10 -22 0 -67
-42 -85 -81 -114 -93 -133 -57 -15 27 -2 42 49 57 24 8 57 31 87 62 66 68 129
83 191 44z m-1370 -85 c127 -48 160 -268 48 -315 -132 -55 -295 50 -295 190 0
37 6 52 30 78 l29 33 1 -61 c0 -47 5 -69 23 -95 35 -52 82 -79 139 -79 61 0
82 11 98 49 36 88 -63 202 -139 160 -37 -21 -40 -67 -7 -98 29 -27 83 -33 96
-11 12 19 3 30 -23 30 -32 0 -50 15 -45 36 3 13 11 18 28 16 56 -6 87 -79 52
-122 -16 -19 -29 -24 -61 -24 -71 2 -123 53 -125 123 -2 76 72 120 151 90z
m500 -51 c4 -7 15 -13 23 -13 14 0 33 -62 23 -78 -3 -4 -18 -5 -34 -2 -28 6
-29 5 -29 -28 0 -45 -38 -91 -86 -107 -56 -19 -143 -8 -166 20 -26 33 -23 40
21 40 58 0 69 7 97 61 26 52 62 72 89 49 20 -17 36 -3 29 25 -9 38 15 61 33
33z m587 -121 c25 -18 17 -58 -14 -74 -33 -17 -101 -16 -124 0 -25 18 -17 58
14 74 33 17 101 16 124 0z m-467 -59 c14 -14 30 -19 45 -15 13 3 42 2 66 -2
23 -5 45 -4 48 0 8 14 34 10 34 -5 0 -7 7 -19 15 -26 20 -16 19 -38 -1 -42 -8
-2 -25 -28 -37 -58 -21 -51 -25 -55 -58 -58 -41 -3 -89 30 -115 79 -19 38 -36
37 -87 -5 -59 -48 -112 -68 -184 -69 -68 -1 -73 -11 -14 -27 54 -14 136 3 189
40 45 32 72 38 72 17 0 -15 45 -59 77 -76 12 -6 47 -11 77 -11 64 0 73 -14 21
-36 -49 -20 -98 -18 -129 7 -27 21 -28 21 -69 3 -31 -14 -65 -19 -132 -19 -94
0 -133 13 -207 68 -15 11 -53 24 -83 28 -32 4 -72 18 -91 31 -34 23 -46 42
-20 32 24 -9 94 15 111 39 8 12 15 34 15 50 0 28 1 29 23 15 12 -8 34 -37 48
-64 23 -44 29 -49 62 -52 31 -3 43 2 65 25 15 16 50 37 77 48 54 20 102 63
111 101 5 20 9 22 28 13 11 -7 31 -20 43 -31z m553 -37 c45 -85 -84 -200 -229
-204 -52 -2 -65 1 -78 18 -19 26 -12 95 15 132 19 26 24 28 99 28 61 0 87 5
118 22 50 27 62 28 75 4z m-625 -477 c57 -22 68 -189 20 -319 -15 -41 -31 -78
-36 -81 -18 -11 -9 -53 17 -73 65 -51 94 -37 98 46 4 100 78 196 137 178 25
-8 59 -62 59 -93 0 -35 -26 -78 -62 -103 -18 -12 -35 -24 -38 -26 -8 -7 25
-23 48 -23 60 0 108 52 155 170 18 45 31 65 43 65 18 0 26 -18 59 -139 18 -62
46 -99 69 -90 26 10 39 61 33 124 -7 67 6 115 35 131 35 19 51 -7 44 -68 -16
-133 -97 -253 -171 -253 -24 0 -64 48 -71 86 -10 56 -27 60 -65 16 -73 -85
-171 -123 -225 -87 -25 16 -30 16 -80 0 -60 -19 -81 -15 -125 22 l-30 26 -61
-32 c-95 -48 -123 -42 -182 44 l-19 28 -48 -54 c-58 -65 -70 -62 -114 29 -37
76 -56 96 -83 87 -12 -3 -56 -38 -98 -76 -92 -83 -108 -93 -122 -76 -8 9 -3
44 18 121 40 147 61 171 81 91 15 -58 27 -65 53 -29 11 16 39 49 62 74 36 38
44 42 58 31 9 -8 23 -39 32 -70 22 -75 49 -127 71 -135 27 -11 60 35 69 91 9
64 30 103 55 103 28 0 40 -41 33 -114 -5 -53 -3 -64 15 -83 30 -31 90 -31 127
0 l26 23 -16 72 c-19 83 -20 141 -5 214 25 117 75 174 134 152z m-261 -30 c9
-8 16 -23 16 -32 0 -28 -29 -62 -54 -62 -45 0 -60 45 -30 88 18 26 46 28 68 6z
m1626 -214 c11 -11 20 -28 20 -38 0 -43 -54 -56 -85 -22 -10 11 -24 20 -31 20
-25 0 -70 -62 -119 -162 -30 -61 -56 -103 -65 -103 -17 0 -35 34 -53 100 l-13
49 -27 -47 c-40 -67 -96 -102 -165 -102 -48 0 -57 3 -83 33 -24 27 -29 41 -29
85 1 67 29 131 72 157 59 36 110 22 134 -36 12 -30 12 -39 -1 -69 -11 -28 -26
-41 -70 -61 -30 -14 -55 -29 -55 -34 0 -4 14 -13 31 -19 66 -23 135 36 179
156 32 86 56 96 65 26 8 -68 24 -123 35 -123 5 0 24 33 43 73 44 95 91 137
152 137 32 0 51 -6 65 -20z"/>
<path d="M1700 2897 c-20 -7 -36 -20 -38 -31 -4 -17 0 -18 44 -11 43 6 47 5
35 -9 -18 -22 -5 -36 35 -36 40 0 45 -16 9 -30 -30 -11 -31 -21 -5 -45 32 -29
25 -41 -20 -37 -40 4 -40 4 -34 -27 7 -36 4 -37 -37 -15 -34 17 -45 14 -35
-11 14 -37 103 -46 154 -15 60 37 80 135 43 209 -28 53 -92 78 -151 58z"/>
<path d="M1604 2823 c-4 -16 -14 -23 -32 -23 -25 0 -25 0 -6 -21 18 -20 18
-21 1 -30 -21 -12 -13 -29 14 -29 13 0 19 -7 19 -22 0 -20 1 -20 18 -5 11 10
26 14 41 10 21 -5 22 -4 13 13 -9 15 -7 21 11 31 l22 13 -22 6 c-26 7 -28 15
-10 33 10 10 8 12 -10 9 -13 -2 -28 5 -37 17 -16 20 -16 20 -22 -2z"/>
<path d="M2241 2906 c-8 -10 -7 -17 3 -26 17 -13 36 -6 36 15 0 19 -27 26 -39
11z"/>
<path d="M2237 2772 c-8 -40 -44 -81 -91 -103 l-41 -19 48 5 c63 6 101 28 117
64 10 26 10 35 -4 56 -21 31 -22 31 -29 -3z"/>
<path d="M1830 2461 c0 -32 80 -64 127 -52 38 10 42 31 5 31 -16 0 -51 7 -78
15 -58 18 -54 17 -54 6z"/>
<path d="M805 2457 c-31 -49 -57 -167 -35 -167 14 0 36 48 50 111 16 71 10 93
-15 56z"/>
<path d="M842 2403 c-21 -40 -23 -73 -6 -80 23 -9 46 25 42 61 -4 35 -23 45
-36 19z"/>
<path d="M975 2347 c-9 -24 -15 -59 -13 -78 l3 -34 19 28 c21 31 35 127 18
127 -6 0 -18 -20 -27 -43z"/>
<path d="M922 2358 c-14 -14 -16 -54 -3 -63 12 -7 31 26 31 54 0 24 -10 27
-28 9z"/>
<path d="M404 2336 c-9 -24 19 -71 44 -74 28 -4 29 20 1 59 -22 32 -37 37 -45
15z"/>
<path d="M324 2285 c-8 -33 19 -75 50 -75 35 0 36 8 5 40 -16 16 -29 36 -29
44 0 25 -19 18 -26 -9z"/>
<path d="M1942 2233 c2 -22 -2 -29 -19 -31 -40 -6 -25 -24 17 -21 46 4 58 -4
40 -26 -22 -27 -1 -30 41 -6 26 15 44 20 50 14 6 -6 4 -15 -6 -23 -8 -7 -15
-16 -15 -21 0 -14 26 -10 40 6 7 8 28 15 48 15 l36 0 -27 28 c-15 15 -27 36
-27 45 0 23 -17 21 -25 -3 -9 -29 -23 -25 -46 15 -20 33 -44 41 -33 11 10 -27
-18 -28 -42 -2 -31 33 -35 33 -32 -1z"/>
<path d="M1155 1401 c-23 -14 -31 -26 -33 -54 -2 -27 1 -37 11 -37 21 0 77 66
77 90 0 24 -15 24 -55 1z"/>
<path d="M1666 1473 c-8 -31 12 -49 32 -29 11 11 11 18 3 35 -16 28 -27 26
-35 -6z"/>
<path d="M532 1458 c-18 -18 -15 -36 7 -48 28 -14 55 13 41 41 -12 22 -30 25
-48 7z"/>
<path d="M920 1220 c0 -20 27 -40 54 -40 23 0 19 26 -6 44 -30 22 -48 20 -48
-4z"/>
<path d="M2031 1376 c-16 -19 -5 -53 21 -67 27 -15 68 -3 68 20 0 37 -68 73
-89 47z"/>
<path d="M1410 995 c-10 -12 -10 -18 0 -30 20 -25 55 -15 55 15 0 30 -35 40
-55 15z"/>
<path d="M1785 980 c-11 -5 -32 -9 -46 -9 -24 -1 -27 -6 -31 -41 -3 -33 0 -40
14 -40 46 0 108 47 108 82 0 19 -13 22 -45 8z"/>
<path d="M1219 458 c-15 -28 -24 -162 -15 -212 4 -20 13 -36 21 -36 32 0 70
203 46 248 -15 28 -37 28 -52 0z"/>
<path d="M1447 232 c-26 -29 -21 -112 8 -112 39 0 68 99 35 121 -21 12 -25 11
-43 -9z"/>
<path d="M2066 228 c-9 -12 -16 -40 -16 -61 0 -35 2 -38 23 -32 28 8 67 51 67
74 0 42 -49 55 -74 19z"/>
<path d="M1 108 l-1 -108 88 1 87 0 -40 15 c-68 25 -108 76 -125 157 -6 34 -8
20 -9 -65z"/>
</g>
</svg>
